<svg id="Layer_1" enable-background="new 0 0 512.001 512.001" height="512" viewBox="0 0 512.001 512.001" width="512" xmlns="http://www.w3.org/2000/svg"><g><g><path d="m485.501 241.507c-1.194 0-2.367.087-3.52.241l-8.035-17.969c26.148-13.455 39.044-44.565 28.968-73.038-3.79-10.707-10.506-20.065-19.422-27.061-4.728-3.711-10.616-5.358-16.585-4.639-5.967.72-11.297 3.72-15.007 8.448s-5.357 10.617-4.637 16.584 3.72 11.296 8.447 15.006c2.191 1.72 3.845 4.027 4.781 6.675 2.713 7.667-1.321 16.114-8.993 18.83-3.704 1.312-7.706 1.098-11.27-.603-3.562-1.7-6.245-4.676-7.557-8.382-.938-2.647-1.104-5.481-.482-8.197 2.769-12.093-4.817-24.185-16.911-26.954-5.859-1.344-11.889-.321-16.979 2.873-5.092 3.194-8.634 8.18-9.975 14.038-2.529 11.049-1.863 22.547 1.926 33.254 10.155 28.941 40.831 45.015 69.569 38.322l8.471 18.945c-5.195 4.448-8.651 10.864-9.204 18.084l-60.952 12.976c-3.77-13.07-15.533-22.783-29.635-23.466v-36.99c0-30.043-11.7-58.295-32.948-79.555-19.477-19.467-44.83-30.913-72.052-32.693v-22.569c-.344-9.931-14.66-9.923-15 0v22.568c-14.086.917-27.668 4.418-40.469 10.46-3.746 1.769-5.349 6.238-3.581 9.983 1.768 3.747 6.238 5.349 9.984 3.581 36.278-17.539 82.317-9.63 110.511 19.274 18.414 18.424 28.555 42.91 28.555 68.948v17.48h-20v-39.592c0-10.426-8.482-18.908-18.908-18.908h-117.182c-10.426 0-18.908 8.482-18.908 18.908v39.592h-20v-17.48c0-26.438 10.407-51.184 29.303-69.681 2.96-2.897 3.011-7.646.114-10.605-2.897-2.961-7.646-3.011-10.606-.113-21.803 21.341-33.811 49.895-33.811 80.399v36.99c-14.101.683-25.864 10.396-29.635 23.466l-60.952-12.976c-.554-7.22-4.01-13.636-9.204-18.084l8.471-18.945c28.737 6.693 59.415-9.381 69.57-38.322 3.79-10.707 4.456-22.206 1.926-33.254-1.341-5.858-4.884-10.844-9.975-14.038-5.092-3.194-11.123-4.218-16.98-2.873-12.093 2.77-19.679 14.861-16.911 26.954.622 2.715.455 5.55-.482 8.198-2.713 7.666-11.159 11.699-18.826 8.983-7.672-2.716-11.707-11.163-8.995-18.829.938-2.647 2.591-4.956 4.782-6.676 9.669-7.269 11.473-22.231 3.811-31.59-3.71-4.729-9.04-7.729-15.006-8.448-5.968-.718-11.857.928-16.584 4.638-34.28 26.263-28.532 81.104 9.545 100.1l-8.035 17.969c-15.695-2.231-30.143 10.397-30.02 26.259.329 27.583 36.659 36.444 49.792 12.629l63.397 13.496c2.805 14.46 15.221 25.53 30.31 26.26v80.33c0 4.143 3.358 7.5 7.5 7.5h75.5v32.74h-15v-12.5c0-7.444-6.056-13.5-13.5-13.5h-112c-7.444 0-13.5 6.056-13.5 13.5v70c0 7.444 6.056 13.5 13.5 13.5h44.937c9.931-.344 9.923-14.66 0-15h-43.436v-11h109v11h-30.121c-9.931.344-9.923 14.66 0 15h31.621c7.444 0 13.5-6.056 13.5-13.5v-12.5h15.208c1.335 9.711 9.665 17.223 19.738 17.223h19.107c10.072 0 18.403-7.511 19.738-17.223h15.208v12.5c0 7.444 6.056 13.5 13.5 13.5h112c7.444 0 13.5-6.056 13.5-13.5v-70c0-7.444-6.056-13.5-13.5-13.5h-112c-7.444 0-13.5 6.056-13.5 13.5v12.5h-15v-32.74h75.5c4.143 0 7.5-3.357 7.5-7.5v-20.964c-.344-9.931-14.66-9.923-15 0v13.464h-195v-142.26h20v12.592c0 10.426 8.482 18.908 18.908 18.908h117.184c10.426 0 18.908-8.482 18.908-18.908v-12.592h20v93.633c.344 9.931 14.66 9.923 15 0v-24.203c15.09-.731 27.505-11.8 30.31-26.26l63.397-13.496c13.143 23.82 49.464 14.948 49.792-12.629.002-14.608-11.886-26.496-26.498-26.496zm-81.11-55.897c-2.838-8.021-3.338-16.632-1.445-24.902.924-4.032 4.958-6.559 8.984-5.638 4.032.924 6.562 4.954 5.639 8.983-1.259 5.493-.926 11.218.963 16.552 5.473 15.463 22.499 23.593 37.972 18.12 15.468-5.476 23.601-22.511 18.129-37.975-1.888-5.334-5.229-9.992-9.662-13.472-1.576-1.236-2.575-3.013-2.815-5.001-.24-1.989.309-3.952 1.546-5.528 1.236-1.576 3.014-2.576 5.002-2.816 1.99-.237 3.952.309 5.528 1.547 6.675 5.237 11.703 12.245 14.542 20.266 8.231 23.262-4 48.886-27.266 57.12-23.264 8.234-48.884-3.996-57.117-27.256zm-381.162-29.864c2.838-8.021 7.867-15.028 14.542-20.267 1.574-1.24 3.561-1.786 5.527-1.546 1.989.24 3.765 1.24 5.002 2.816 1.236 1.576 1.785 3.539 1.545 5.528-.24 1.988-1.24 3.765-2.816 5.002-4.432 3.479-7.773 8.137-9.661 13.471-5.472 15.464 2.661 32.499 18.13 37.975 15.465 5.472 32.498-2.656 37.971-18.12 1.888-5.335 2.221-11.058.963-16.55-.923-4.031 1.606-8.062 5.637-8.985 4.029-.92 8.062 1.605 8.984 5.638 6.72 27.874-15.792 55.127-43.673 54.725-4.942 0-9.97-.826-14.888-2.566-23.265-8.236-35.496-33.86-27.263-57.121zm173.272 274.217v11h-109v-11zm-109 26h109v15h-109zm124 0h15v15h-15zm59 27.278c0 2.727-2.219 4.945-4.946 4.945h-19.107c-2.728 0-4.946-2.219-4.946-4.945v-75.013h29v75.013zm154-27.278v15h-109v-15zm-109 41v-11h109v11zm109-67v11h-109v-11zm-124 26v15h-15v-15zm-274-176.456c-6.341 0-11.5-5.159-11.5-11.5.632-15.256 22.371-15.252 23 0 0 6.341-5.159 11.5-11.5 11.5zm101.09 8.426c0-9.113 7.004-16.613 15.91-17.419v34.839c-8.907-.807-15.91-8.307-15.91-17.42zm190.91-24.378c0 2.155-1.753 3.908-3.908 3.908h-117.184c-2.155 0-3.908-1.753-3.908-3.908v-67.184c0-2.155 1.753-3.908 3.908-3.908h117.184c2.155 0 3.908 1.753 3.908 3.908zm50 41.798v-34.839c21.097 2.51 21.082 32.336 0 34.839zm117-25.846c-6.341 0-11.5-5.159-11.5-11.5.632-15.256 22.37-15.252 23 0 0 6.341-5.16 11.5-11.5 11.5z"/><path d="m256.036 53.404c-11.435 0-22.29 3.662-31.394 10.592-3.296 2.509-3.934 7.214-1.425 10.511 2.522 3.314 7.244 3.918 10.51 1.425 12.745-9.981 31.796-10 44.558-.045 3.301 2.504 8.004 1.856 10.508-1.443 2.503-3.3 1.857-8.005-1.443-10.508-9.084-6.891-19.912-10.532-31.314-10.532z"/><path d="m301.38 51.558c2.504-3.3 1.858-8.004-1.441-10.508-25.18-19.652-62.738-19.628-87.885.061-3.296 2.509-3.934 7.215-1.425 10.511 2.523 3.314 7.243 3.918 10.511 1.425 19.956-15.624 49.75-15.642 69.732-.047 3.298 2.501 8.005 1.858 10.508-1.442z"/><path d="m204.506 32.349c1.583 0 3.18-.499 4.537-1.532 26.871-21.039 67.024-21.057 93.922-.048 3.298 2.507 8.004 1.862 10.508-1.438 2.506-3.299 1.861-8.003-1.438-10.508-32.095-25.071-80.015-25.046-112.078.058-3.296 2.508-3.934 7.214-1.425 10.51 1.477 1.94 3.712 2.958 5.974 2.958z"/><path d="m228.001 321.796c-7.444 0-13.5 6.056-13.5 13.5v28c0 7.444 6.056 13.5 13.5 13.5h56c7.444 0 13.5-6.056 13.5-13.5v-28c0-7.444-6.056-13.5-13.5-13.5zm54.5 40h-53v-25h53z"/><path d="m241.086 222.463h-19.538c-9.931.344-9.923 14.66 0 15h19.538c9.931-.344 9.924-14.659 0-15z"/><path d="m290.454 222.463h-19.539c-9.931.344-9.923 14.66 0 15h19.539c9.931-.343 9.923-14.66 0-15z"/></g></g></svg>